<svg xmlns="http://www.w3.org/2000/svg" viewBox="0 0 1350.09 100">
    <defs>
        <style>.a{fill:#f3e05e;}</style>
    </defs>
    <title>logo</title>
    <path d="M127.85,81.27h47.62V98.38H109.39V6.11h18.46Z" transform="translate(0.31)"/>
    <path d="M218.34,32q14.79,0,24.56,9.64t9.77,24.42q0,14.79-9.77,24.35T218.34,100q-14.93,0-24.69-9.57t-9.77-24.35q0-14.79,9.77-24.42T218.34,32ZM206.27,78.83a15.61,15.61,0,0,0,12.07,5,15.42,15.42,0,0,0,12-5,18.25,18.25,0,0,0,4.55-12.75,18.42,18.42,0,0,0-4.62-12.75,15.26,15.26,0,0,0-11.94-5.16,15.42,15.42,0,0,0-12.07,5.16,18.42,18.42,0,0,0-4.62,12.75A18.07,18.07,0,0,0,206.27,78.83Z"
          transform="translate(0.31)"/>
    <path d="M298,83.85A14.94,14.94,0,0,0,307.21,81a12.76,12.76,0,0,0,4.89-7.59h18.18A28.69,28.69,0,0,1,319.7,92.54,33.12,33.12,0,0,1,298,100a33.7,33.7,0,0,1-24.49-9.77,32.5,32.5,0,0,1-10-24.15,32.72,32.72,0,0,1,10-24.22A33.56,33.56,0,0,1,298,32a33,33,0,0,1,21.65,7.53,28.82,28.82,0,0,1,10.65,19.2H312.1a13.1,13.1,0,0,0-4.89-7.67A14.73,14.73,0,0,0,298,48.17a15.42,15.42,0,0,0-12.07,5.16,18.42,18.42,0,0,0-4.62,12.75,18.18,18.18,0,0,0,4.62,12.69A15.52,15.52,0,0,0,298,83.85Z"
          transform="translate(0.31)"/>
    <path d="M392,33.65h17.77V98.38H392V94.71A33.41,33.41,0,0,1,373.42,100a30.41,30.41,0,0,1-22.86-9.9,33.56,33.56,0,0,1-9.43-24A33.75,33.75,0,0,1,350.56,42a30.28,30.28,0,0,1,22.86-10A33.34,33.34,0,0,1,392,37.32Zm-15.87,50.2c7.05,0,12.34-2.52,15.87-7.6V55.77q-5.29-7.6-15.87-7.6a16.17,16.17,0,0,0-12.35,5.22,17.92,17.92,0,0,0-4.89,12.69,17.72,17.72,0,0,0,4.89,12.55A16.17,16.17,0,0,0,376.14,83.85Z"
          transform="translate(0.31)"/>
    <path d="M426.88,2h17.78V98.38H426.88Z" transform="translate(0.31)"/>
    <path d="M498.25,32q13,0,20.83,8.48t7.8,22.73V98.38H509.1V64.31q0-7.86-3.8-12t-10.85-4.13q-7.86,0-14.92,8.28V98.38H461.75V2h17.78v36.5A29.11,29.11,0,0,1,498.25,32Z"
          transform="translate(0.31)"/>
    <path d="M573.69,32q14.79,0,24.56,9.64T608,66.08q0,14.79-9.77,24.35T573.69,100q-14.93,0-24.69-9.57t-9.78-24.35q0-14.79,9.78-24.42T573.69,32ZM561.61,78.83a15.63,15.63,0,0,0,12.08,5,15.4,15.4,0,0,0,12-5,18.21,18.21,0,0,0,4.55-12.75,18.46,18.46,0,0,0-4.61-12.75,16.56,16.56,0,0,0-24,0A18.46,18.46,0,0,0,557,66.08,18.11,18.11,0,0,0,561.61,78.83Z"
          transform="translate(0.31)"/>
    <path d="M633.25,76q1.5,9.64,14,9.63,11.55,0,11.54-5.42,0-4.34-6.65-5.56l-14-2.44a27.6,27.6,0,0,1-13.71-6q-5.43-4.6-5.43-13a18.45,18.45,0,0,1,7.6-15.6q7.6-5.7,20.08-5.7,26.87,0,28.64,21.84H658.9Q658.35,46,646.68,46q-10,0-10,5.47,0,5.06,8,6.42l11.6,2q19.47,3.32,19.49,18.7c0,7-2.67,12.28-8,15.94S655.41,100,646.82,100a45.86,45.86,0,0,1-10.58-1.16A31.21,31.21,0,0,1,627,95a19.23,19.23,0,0,1-7-7.53,29.21,29.21,0,0,1-3.19-11.66Z"
          transform="translate(0.31)"/>
    <path d="M736.1,81l2.45,16.15A42.71,42.71,0,0,1,722.94,100q-12.88,0-20-7.39t-7.13-20v-24H682V33.65H695.8V10.18h17.78V33.65h23.74V48.58H713.58v24q0,5.41,3.12,8.21A12,12,0,0,0,725,83.58,29.62,29.62,0,0,0,736.1,81Z"
          transform="translate(0.31)"/>
    <path d="M817.64,32q14.79,0,24.57,9.64T852,66.08q0,14.79-9.76,24.35T817.64,100q-14.91,0-24.69-9.57t-9.77-24.35q0-14.79,9.77-24.42T817.64,32ZM805.57,78.83a15.61,15.61,0,0,0,12.07,5,15.41,15.41,0,0,0,12-5,18.25,18.25,0,0,0,4.55-12.75,18.46,18.46,0,0,0-4.61-12.75,16.56,16.56,0,0,0-24,0A18.42,18.42,0,0,0,801,66.08,18.07,18.07,0,0,0,805.57,78.83Z"
          transform="translate(0.31)"/>
    <path d="M909.77,33.65h18.86L899.05,98.38H883.59L854,33.65h18.86l18.45,41.68Z" transform="translate(0.31)"/>
    <path d="M996.74,63.77a53.3,53.3,0,0,1-.41,7.47H948.84q2.45,13.14,16.42,13.16,7.34,0,10.31-3.67h19.68a27.09,27.09,0,0,1-11.33,14.18,34.46,34.46,0,0,1-18.8,5.09q-15.33,0-24.89-9.64t-9.57-24.28q0-14.65,9.37-24.35T964,32q14.38,0,23.54,8.75T996.74,63.77ZM964.17,47.08q-12.07,0-14.92,12.08h29.44Q977.34,47.09,964.17,47.08Z"
          transform="translate(0.31)"/>
    <path d="M1027.13,41.11q9-8.53,22.93-8.54V49.39q-14.93.81-22.93,9.77V98.38h-17.77V33.65h17.77Z"
          transform="translate(0.31)"/>
    <path d="M1111.93,33.65h18.86l-29.58,64.73h-15.47l-29.57-64.73H1075l18.45,41.68Z" transform="translate(0.31)"/>
    <path d="M1152.23,21a10.72,10.72,0,0,1-7.73-3,9.88,9.88,0,0,1-3.13-7.47A10,10,0,0,1,1144.5,3a11.33,11.33,0,0,1,15.4.06,10,10,0,0,1,3.18,7.53,9.82,9.82,0,0,1-3.18,7.47A10.84,10.84,0,0,1,1152.23,21Zm-8.82,12.62h17.77V98.38h-17.77Z"
          transform="translate(0.31)"/>
    <path d="M1242.46,63.77a53.3,53.3,0,0,1-.41,7.47h-47.49Q1197,84.38,1211,84.4q7.33,0,10.31-3.67H1241a27.07,27.07,0,0,1-11.32,14.18,34.46,34.46,0,0,1-18.8,5.09q-15.33,0-24.89-9.64t-9.57-24.28q0-14.65,9.36-24.35t24-9.71q14.37,0,23.54,8.75T1242.46,63.77Zm-32.57-16.69q-12.08,0-14.92,12.08h29.44Q1223.06,47.09,1209.89,47.08Z"
          transform="translate(0.31)"/>
    <path d="M1330.51,33.65h19.27L1327,98.38h-15.47l-13.71-40.17-13.7,40.17h-15.47l-22.79-64.73h19.26l11.27,37.86,14-37.86h14.93l14,37.86Z"
          transform="translate(0.31)"/>
    <circle class="a" cx="50" cy="50" r="50"/>
</svg>